{
  "accessors": [
    {
      "bufferView": 2,
      "componentType": 5126,
      "count": 65532,
      "max": [
        15.326729774475098,
        10.16140079498291,
        24.313112258911133
      ],
      "min": [
        -14.382900238037109,
        -24.075342178344727,
        -42.881401062011719
      ],
      "type": "VEC3"
    },
    {
      "bufferView": 2,
      "byteOffset": 786384,
      "componentType": 5126,
      "count": 65532,
      "max": [
        0.99999934434890747,
        0.99996423721313477,
        0.99974250793457031
      ],
      "min": [
        -0.99999862909317017,
        -0.99998408555984497,
        -0.99997031688690186
      ],
      "type": "VEC3"
    },
    {
      "bufferView": 3,
      "componentType": 5126,
      "count": 65532,
      "max": [
        0.99997365474700928,
        0.99998587369918823,
        0.99944913387298584,
        1
      ],
      "min": [
        -0.99999964237213135,
        -0.99997979402542114,
        -0.99987846612930298,
        -1
      ],
      "type": "VEC4"
    },
    {
      "bufferView": 1,
      "componentType": 5126,
      "count": 65532,
      "max": [
        0.78873777389526367,
        0.99776709079742432
      ],
      "min": [
        0.006617431528866291,
        0.022296883165836334
      ],
      "type": "VEC2"
    },
    {
      "bufferView": 0,
      "componentType": 5125,
      "count": 351903,
      "max": [
        65531
      ],
      "min": [
        0
      ],
      "type": "SCALAR"
    },
    {
      "bufferView": 2,
      "byteOffset": 1572768,
      "componentType": 5126,
      "count": 65532,
      "max": [
        14.337353706359863,
        10.198236465454102,
        30.847114562988281
      ],
      "min": [
        -14.799137115478516,
        -24.40141487121582,
        -42.795768737792969
      ],
      "type": "VEC3"
    },
    {
      "bufferView": 2,
      "byteOffset": 2359152,
      "componentType": 5126,
      "count": 65532,
      "max": [
        1,
        0.99999815225601196,
        0.99997407197952271
      ],
      "min": [
        -1,
        -0.99999505281448364,
        -0.99988704919815063
      ],
      "type": "VEC3"
    },
    {
      "bufferView": 3,
      "byteOffset": 1048512,
      "componentType": 5126,
      "count": 65532,
      "max": [
        0.99999994039535522,
        0.99992543458938599,
        0.99993354082107544,
        1
      ],
      "min": [
        -0.99999850988388062,
        -0.9999924898147583,
        -0.99915212392807007,
        -1
      ],
      "type": "VEC4"
    },
    {
      "bufferView": 1,
      "byteOffset": 524256,
      "componentType": 5126,
      "count": 65532,
      "max": [
        0.99814486503601074,
        0.83274745941162109
      ],
      "min": [
        0.09157012403011322,
        0.008078048937022686
      ],
      "type": "VEC2"
    },
    {
      "bufferView": 0,
      "byteOffset": 1407612,
      "componentType": 5125,
      "count": 347979,
      "max": [
        65531
      ],
      "min": [
        0
      ],
      "type": "SCALAR"
    },
    {
      "bufferView": 2,
      "byteOffset": 3145536,
      "componentType": 5126,
      "count": 65532,
      "max": [
        15.326729774475098,
        10.310938835144043,
        30.797981262207031
      ],
      "min": [
        -14.820701599121094,
        -24.402961730957031,
        -42.900306701660156
      ],
      "type": "VEC3"
    },
    {
      "bufferView": 2,
      "byteOffset": 3931920,
      "componentType": 5126,
      "count": 65532,
      "max": [
        0.99999356269836426,
        0.99999988079071045,
        0.99999815225601196
      ],
      "min": [
        -0.99998259544372559,
        -0.99999505281448364,
        -0.99988704919815063
      ],
      "type": "VEC3"
    },
    {
      "bufferView": 3,
      "byteOffset": 2097024,
      "componentType": 5126,
      "count": 65532,
      "max": [
        0.9999997615814209,
        0.99999707937240601,
        0.99986976385116577,
        1
      ],
      "min": [
        -0.99999910593032837,
        -0.99999970197677612,
        -0.99869799613952637,
        -1
      ],
      "type": "VEC4"
    },
    {
      "bufferView": 1,
      "byteOffset": 1048512,
      "componentType": 5126,
      "count": 65532,
      "max": [
        0.99656945466995239,
        0.99776709079742432
      ],
      "min": [
        0.0045352638699114323,
        0.011563193053007126
      ],
      "type": "VEC2"
    },
    {
      "bufferView": 0,
      "byteOffset": 2799528,
      "componentType": 5125,
      "count": 337164,
      "max": [
        65531
      ],
      "min": [
        0
      ],
      "type": "SCALAR"
    },
    {
      "bufferView": 2,
      "byteOffset": 4718304,
      "componentType": 5126,
      "count": 17674,
      "max": [
        -0.035653553903102875,
        10.118203163146973,
        30.42442512512207
      ],
      "min": [
        -14.786038398742676,
        -24.40141487121582,
        -42.900550842285156
      ],
      "type": "VEC3"
    },
    {
      "bufferView": 2,
      "byteOffset": 4930392,
      "componentType": 5126,
      "count": 17674,
      "max": [
        0.99964535236358643,
        0.99994015693664551,
        0.99994945526123047
      ],
      "min": [
        -0.99999594688415527,
        -0.99986183643341064,
        -0.99907290935516357
      ],
      "type": "VEC3"
    },
    {
      "bufferView": 3,
      "byteOffset": 3145536,
      "componentType": 5126,
      "count": 17674,
      "max": [
        0.99999994039535522,
        0.85577338933944702,
        0.99582463502883911,
        1
      ],
      "min": [
        -0.9999849796295166,
        -0.99999654293060303,
        -0.99993491172790527,
        1
      ],
      "type": "VEC4"
    },
    {
      "bufferView": 1,
      "byteOffset": 1572768,
      "componentType": 5126,
      "count": 17674,
      "max": [
        0.87757515907287598,
        0.83098089694976807
      ],
      "min": [
        0.40666350722312927,
        0.008078048937022686
      ],
      "type": "VEC2"
    },
    {
      "bufferView": 0,
      "byteOffset": 4148184,
      "componentType": 5125,
      "count": 85770,
      "max": [
        17673
      ],
      "min": [
        0
      ],
      "type": "SCALAR"
    },
    {
      "bufferView": 2,
      "byteOffset": 5142480,
      "componentType": 5126,
      "count": 2160,
      "max": [
        13.181526184082031,
        5.5238766670227051,
        29.49424934387207
      ],
      "min": [
        -13.194219589233398,
        -8.3504304885864258,
        17.461215972900391
      ],
      "type": "VEC3"
    },
    {
      "bufferView": 2,
      "byteOffset": 5168400,
      "componentType": 5126,
      "count": 2160,
      "max": [
        0.9990573525428772,
        0.99620664119720459,
        0.99298775196075439
      ],
      "min": [
        -0.99970024824142456,
        -0.99568831920623779,
        -0.99835687875747681
      ],
      "type": "VEC3"
    },
    {
      "bufferView": 3,
      "byteOffset": 3428320,
      "componentType": 5126,
      "count": 2160,
      "max": [
        0.99748867750167847,
        0.99755299091339111,
        0.99598759412765503,
        1
      ],
      "min": [
        -0.99911248683929443,
        -0.99627703428268433,
        -0.99987637996673584,
        1
      ],
      "type": "VEC4"
    },
    {
      "bufferView": 1,
      "byteOffset": 1714160,
      "componentType": 5126,
      "count": 2160,
      "max": [
        0.98747491836547852,
        0.99511021375656128
      ],
      "min": [
        0.53986233472824097,
        0.59257972240447998
      ],
      "type": "VEC2"
    },
    {
      "bufferView": 0,
      "byteOffset": 4491264,
      "componentType": 5125,
      "count": 9720,
      "max": [
        2159
      ],
      "min": [
        0
      ],
      "type": "SCALAR"
    },
    {
      "bufferView": 2,
      "byteOffset": 5194320,
      "componentType": 5126,
      "count": 11777,
      "max": [
        1.4703381061553955,
        12.611544609069824,
        0.99852496385574341
      ],
      "min": [
        -1.3633085489273071,
        -7.5546154975891113,
        -6.2429804801940918
      ],
      "type": "VEC3"
    },
    {
      "bufferView": 2,
      "byteOffset": 5335644,
      "componentType": 5126,
      "count": 11777,
      "max": [
        0.99996978044509888,
        0.99807363748550415,
        0.99993324279785156
      ],
      "min": [
        -0.99996852874755859,
        -0.99610131978988647,
        -0.99997997283935547
      ],
      "type": "VEC3"
    },
    {
      "bufferView": 3,
      "byteOffset": 3462880,
      "componentType": 5126,
      "count": 11777,
      "max": [
        0.99999898672103882,
        0.87726539373397827,
        0.99997681379318237,
        1
      ],
      "min": [
        -0.99995779991149902,
        -0.85097163915634155,
        -0.99999809265136719,
        1
      ],
      "type": "VEC4"
    },
    {
      "bufferView": 1,
      "byteOffset": 1731440,
      "componentType": 5126,
      "count": 11777,
      "max": [
        0.76318484544754028,
        0.98806118965148926
      ],
      "min": [
        0.22326715290546417,
        0.029949277639389038
      ],
      "type": "VEC2"
    },
    {
      "bufferView": 0,
      "byteOffset": 4530144,
      "componentType": 5125,
      "count": 69504,
      "max": [
        11776
      ],
      "min": [
        0
      ],
      "type": "SCALAR"
    }
  ],
  "asset": {
    "extras": {
      "author": "javaad Ghasemian (https://sketchfab.com/Javaad.Ghasemian)",
      "license": "CC-BY-4.0 (http://creativecommons.org/licenses/by/4.0/)",
      "source": "https://sketchfab.com/3d-models/angler-fish-underwater-creatures-b5d461ca58ba4924aeeb7b3a7a036d55",
      "title": "Angler fish (underwater creatures)"
    },
    "generator": "Sketchfab-10.12.0",
    "version": "2.0"
  },
  "bufferViews": [
    {
      "buffer": 0,
      "byteLength": 4808160,
      "byteOffset": 0,
      "name": "floatBufferViews",
      "target": 34963
    },
    {
      "buffer": 0,
      "byteLength": 1825656,
      "byteOffset": 4808160,
      "byteStride": 8,
      "name": "floatBufferViews",
      "target": 34962
    },
    {
      "buffer": 0,
      "byteLength": 5476968,
      "byteOffset": 6633816,
      "byteStride": 12,
      "name": "floatBufferViews",
      "target": 34962
    },
    {
      "buffer": 0,
      "byteLength": 3651312,
      "byteOffset": 12110784,
      "byteStride": 16,
      "name": "floatBufferViews",
      "target": 34962
    }
  ],
  "buffers": [
    {
      "byteLength": 15762096,
      "uri": "scene.bin"
    }
  ],
  "images": [
    {
      "uri": "textures/lambert2_baseColor.png"
    },
    {
      "uri": "textures/lambert2_metallicRoughness.png"
    },
    {
      "uri": "textures/lambert2_emissive.png"
    },
    {
      "uri": "textures/lambert2_normal.png"
    },
    {
      "uri": "textures/lambert3_baseColor.png"
    },
    {
      "uri": "textures/lambert3_metallicRoughness.png"
    },
    {
      "uri": "textures/lambert3_emissive.png"
    },
    {
      "uri": "textures/lambert3_normal.png"
    }
  ],
  "materials": [
    {
      "doubleSided": true,
      "emissiveFactor": [
        1,
        1,
        1
      ],
      "emissiveTexture": {
        "index": 2,
        "texCoord": 0
      },
      "name": "lambert2",
      "normalTexture": {
        "index": 3,
        "scale": 0.80000000000000004,
        "texCoord": 0
      },
      "occlusionTexture": {
        "index": 1,
        "strength": 1,
        "texCoord": 0
      },
      "pbrMetallicRoughness": {
        "baseColorFactor": [
          1,
          1,
          1,
          1
        ],
        "baseColorTexture": {
          "index": 0,
          "texCoord": 0
        },
        "metallicFactor": 1,
        "metallicRoughnessTexture": {
          "index": 1,
          "texCoord": 0
        },
        "roughnessFactor": 0.59999999999999998
      }
    },
    {
      "doubleSided": true,
      "emissiveFactor": [
        1,
        1,
        1
      ],
      "emissiveTexture": {
        "index": 6,
        "texCoord": 0
      },
      "name": "lambert3",
      "normalTexture": {
        "index": 7,
        "scale": 1,
        "texCoord": 0
      },
      "occlusionTexture": {
        "index": 5,
        "strength": 1,
        "texCoord": 0
      },
      "pbrMetallicRoughness": {
        "baseColorFactor": [
          1,
          1,
          1,
          1
        ],
        "baseColorTexture": {
          "index": 4,
          "texCoord": 0
        },
        "metallicFactor": 0,
        "metallicRoughnessTexture": {
          "index": 5,
          "texCoord": 0
        },
        "roughnessFactor": 1
      }
    }
  ],
  "meshes": [
    {
      "name": "Fish_Body_lambert2_0",
      "primitives": [
        {
          "attributes": {
            "NORMAL": 1,
            "POSITION": 0,
            "TANGENT": 2,
            "TEXCOORD_0": 3
          },
          "indices": 4,
          "material": 0,
          "mode": 4
        }
      ]
    },
    {
      "name": "Fish_Body_lambert2_0",
      "primitives": [
        {
          "attributes": {
            "NORMAL": 6,
            "POSITION": 5,
            "TANGENT": 7,
            "TEXCOORD_0": 8
          },
          "indices": 9,
          "material": 0,
          "mode": 4
        }
      ]
    },
    {
      "name": "Fish_Body_lambert2_0",
      "primitives": [
        {
          "attributes": {
            "NORMAL": 11,
            "POSITION": 10,
            "TANGENT": 12,
            "TEXCOORD_0": 13
          },
          "indices": 14,
          "material": 0,
          "mode": 4
        }
      ]
    },
    {
      "name": "Fish_Body_lambert2_0",
      "primitives": [
        {
          "attributes": {
            "NORMAL": 16,
            "POSITION": 15,
            "TANGENT": 17,
            "TEXCOORD_0": 18
          },
          "indices": 19,
          "material": 0,
          "mode": 4
        }
      ]
    },
    {
      "name": "pCylinder62_lambert2_0",
      "primitives": [
        {
          "attributes": {
            "NORMAL": 21,
            "POSITION": 20,
            "TANGENT": 22,
            "TEXCOORD_0": 23
          },
          "indices": 24,
          "material": 0,
          "mode": 4
        }
      ]
    },
    {
      "name": "pCylinder16_lambert3_0",
      "primitives": [
        {
          "attributes": {
            "NORMAL": 26,
            "POSITION": 25,
            "TANGENT": 27,
            "TEXCOORD_0": 28
          },
          "indices": 29,
          "material": 1,
          "mode": 4
        }
      ]
    }
  ],
  "nodes": [
    {
      "children": [
        1
      ],
      "name": "RootNode (gltf orientation matrix)",
      "rotation": [
        -0.70710678118654746,
        -0,
        -0,
        0.70710678118654757
      ]
    },
    {
      "children": [
        2
      ],
      "matrix": [
        0.0046511627733707428,
        0,
        0,
        0,
        0,
        0.0046511627733707428,
        0,
        0,
        0,
        0,
        0.0046511627733707428,
        0,
        0,
        0,
        0,
        1
      ],
      "name": "RootNode (model correction matrix)"
    },
    {
      "children": [
        3
      ],
      "matrix": [
        1,
        0,
        0,
        0,
        0,
        0,
        1,
        0,
        0,
        -1,
        0,
        0,
        0,
        0,
        0,
        1
      ],
      "name": "10b6e13e2c904792b16ab7999b9e9dd2.fbx"
    },
    {
      "children": [
        4,
        9,
        11
      ],
      "name": "RootNode"
    },
    {
      "children": [
        5,
        6,
        7,
        8
      ],
      "matrix": [
        0.99999994039535522,
        0,
        0,
        0,
        0,
        0.99999994039535522,
        0,
        0,
        0,
        0,
        0.99999994039535522,
        0,
        0,
        0,
        0,
        1
      ],
      "name": "Fish_Body"
    },
    {
      "mesh": 0,
      "name": "Fish_Body_lambert2_0"
    },
    {
      "mesh": 1,
      "name": "Fish_Body_lambert2_0"
    },
    {
      "mesh": 2,
      "name": "Fish_Body_lambert2_0"
    },
    {
      "mesh": 3,
      "name": "Fish_Body_lambert2_0"
    },
    {
      "children": [
        10
      ],
      "matrix": [
        0.99999994039535522,
        0,
        0,
        0,
        0,
        0.99999994039535522,
        0,
        0,
        0,
        0,
        0.99999994039535522,
        0,
        0,
        0,
        0,
        1
      ],
      "name": "pCylinder62"
    },
    {
      "mesh": 4,
      "name": "pCylinder62_lambert2_0"
    },
    {
      "children": [
        12
      ],
      "matrix": [
        0.99999994039535522,
        0,
        0,
        0,
        0,
        0.75856219960905868,
        0.65160045342656248,
        0,
        0,
        -0.65160045342656248,
        0.75856219960905868,
        0,
        0,
        13.893512725830078,
        19.439634323120117,
        1
      ],
      "name": "pCylinder16"
    },
    {
      "mesh": 5,
      "name": "pCylinder16_lambert3_0"
    }
  ],
  "samplers": [
    {
      "magFilter": 9729,
      "minFilter": 9987,
      "wrapS": 10497,
      "wrapT": 10497
    }
  ],
  "scene": 0,
  "scenes": [
    {
      "name": "OSG_Scene",
      "nodes": [
        0
      ]
    }
  ],
  "textures": [
    {
      "sampler": 0,
      "source": 0
    },
    {
      "sampler": 0,
      "source": 1
    },
    {
      "sampler": 0,
      "source": 2
    },
    {
      "sampler": 0,
      "source": 3
    },
    {
      "sampler": 0,
      "source": 4
    },
    {
      "sampler": 0,
      "source": 5
    },
    {
      "sampler": 0,
      "source": 6
    },
    {
      "sampler": 0,
      "source": 7
    }
  ]
}

