{
  "accessors": [
    {
      "bufferView": 2,
      "componentType": 5126,
      "count": 36817,
      "max": [
        0.62955999374389648,
        5.7011146545410156,
        2.6791834831237793
      ],
      "min": [
        -0.62955999374389648,
        -0.65131253004074097,
        -6.1052470207214355
      ],
      "type": "VEC3"
    },
    {
      "bufferView": 2,
      "byteOffset": 441804,
      "componentType": 5126,
      "count": 36817,
      "max": [
        1,
        0.99942129850387573,
        0.99994140863418579
      ],
      "min": [
        -1,
        -0.99998366832733154,
        -0.99712622165679932
      ],
      "type": "VEC3"
    },
    {
      "bufferView": 1,
      "componentType": 5125,
      "count": 43308,
      "max": [
        36816
      ],
      "min": [
        0
      ],
      "type": "SCALAR"
    },
    {
      "bufferView": 2,
      "byteOffset": 883608,
      "componentType": 5126,
      "count": 726,
      "max": [
        0.42754998803138733,
        5.0596985816955566,
        -3.2948305606842041
      ],
      "min": [
        -0.42754998803138733,
        4.9664177894592285,
        -3.3840081691741943
      ],
      "type": "VEC3"
    },
    {
      "bufferView": 2,
      "byteOffset": 892320,
      "componentType": 5126,
      "count": 726,
      "max": [
        0.99306726455688477,
        0.81875306367874146,
        0.67812132835388184
      ],
      "min": [
        -0.99306726455688477,
        -0.49970963597297668,
        -0.78046107292175293
      ],
      "type": "VEC3"
    },
    {
      "bufferView": 1,
      "byteOffset": 173232,
      "componentType": 5125,
      "count": 726,
      "max": [
        725
      ],
      "min": [
        0
      ],
      "type": "SCALAR"
    },
    {
      "bufferView": 4,
      "componentType": 5126,
      "count": 14,
      "max": [
        1,
        0,
        0,
        0,
        0,
        1,
        0.84984999895095825,
        0,
        0,
        1,
        1,
        0,
        0,
        3.3749699592590332,
        5.7458500862121582,
        1
      ],
      "min": [
        -1,
        0,
        0,
        0,
        0,
        -0.96198999881744385,
        -1,
        0,
        0,
        -0.99940997362136841,
        0,
        0,
        0,
        -3.9195499420166016,
        -2.5933899879455566,
        1
      ],
      "type": "MAT4"
    },
    {
      "bufferView": 0,
      "componentType": 5123,
      "count": 36817,
      "max": [
        13,
        13,
        13,
        8
      ],
      "min": [
        1,
        1,
        2,
        5
      ],
      "type": "VEC4"
    },
    {
      "bufferView": 3,
      "componentType": 5126,
      "count": 36817,
      "max": [
        1,
        0.49981504678726196,
        0.10698521137237549,
        0.015337965451180935
      ],
      "min": [
        0.50018501281738281,
        0,
        0,
        0
      ],
      "type": "VEC4"
    },
    {
      "bufferView": 0,
      "byteOffset": 294536,
      "componentType": 5123,
      "count": 726,
      "max": [
        13,
        13,
        13,
        13
      ],
      "min": [
        13,
        13,
        13,
        13
      ],
      "type": "VEC4"
    },
    {
      "bufferView": 3,
      "byteOffset": 589072,
      "componentType": 5126,
      "count": 726,
      "max": [
        1,
        0,
        0,
        0
      ],
      "min": [
        1,
        0,
        0,
        0
      ],
      "type": "VEC4"
    },
    {
      "bufferView": 5,
      "componentType": 5126,
      "count": 116,
      "max": [
        5
      ],
      "min": [
        0.041669998317956924
      ],
      "type": "SCALAR"
    },
    {
      "bufferView": 6,
      "componentType": 5126,
      "count": 116,
      "max": [
        0.73734265565872192,
        0,
        0,
        0.70710676908493042
      ],
      "min": [
        0.70710676908493042,
        0,
        0,
        0.67561227083206177
      ],
      "type": "VEC4"
    },
    {
      "bufferView": 5,
      "byteOffset": 464,
      "componentType": 5126,
      "count": 110,
      "max": [
        5
      ],
      "min": [
        0.041669998317956924
      ],
      "type": "SCALAR"
    },
    {
      "bufferView": 6,
      "byteOffset": 1856,
      "componentType": 5126,
      "count": 110,
      "max": [
        -0.17846623063087463,
        0,
        0,
        0.98396944999694824
      ],
      "min": [
        -0.22533053159713745,
        0,
        0,
        0.97428238391876221
      ],
      "type": "VEC4"
    },
    {
      "bufferView": 5,
      "byteOffset": 904,
      "componentType": 5126,
      "count": 118,
      "max": [
        5
      ],
      "min": [
        0.041669998317956924
      ],
      "type": "SCALAR"
    },
    {
      "bufferView": 6,
      "byteOffset": 3616,
      "componentType": 5126,
      "count": 118,
      "max": [
        -0.4356100857257843,
        0,
        -0,
        0.90016865730285645
      ],
      "min": [
        -0.49957019090652466,
        0,
        -0,
        0.86627340316772461
      ],
      "type": "VEC4"
    },
    {
      "bufferView": 5,
      "byteOffset": 1376,
      "componentType": 5126,
      "count": 80,
      "max": [
        5
      ],
      "min": [
        0.041669998317956924
      ],
      "type": "SCALAR"
    },
    {
      "bufferView": 6,
      "byteOffset": 5504,
      "componentType": 5126,
      "count": 80,
      "max": [
        -0.37854081392288208,
        0,
        0,
        0.92567038536071777
      ],
      "min": [
        -0.42536494135856628,
        0,
        0,
        0.90502190589904785
      ],
      "type": "VEC4"
    },
    {
      "bufferView": 5,
      "byteOffset": 1696,
      "componentType": 5126,
      "count": 113,
      "max": [
        5
      ],
      "min": [
        0.041669998317956924
      ],
      "type": "SCALAR"
    },
    {
      "bufferView": 6,
      "byteOffset": 6784,
      "componentType": 5126,
      "count": 113,
      "max": [
        0,
        0.92869466543197632,
        -0.37104225158691406,
        0
      ],
      "min": [
        0,
        0.92177534103393555,
        -0.38772439956665039,
        0
      ],
      "type": "VEC4"
    },
    {
      "bufferView": 5,
      "byteOffset": 2148,
      "componentType": 5126,
      "count": 120,
      "max": [
        5
      ],
      "min": [
        0.041669998317956924
      ],
      "type": "SCALAR"
    },
    {
      "bufferView": 6,
      "byteOffset": 8592,
      "componentType": 5126,
      "count": 120,
      "max": [
        0.58912688493728638,
        0,
        0,
        0.86798816919326782
      ],
      "min": [
        0.49670180678367615,
        0,
        0,
        0.80804049968719482
      ],
      "type": "VEC4"
    },
    {
      "bufferView": 5,
      "byteOffset": 2628,
      "componentType": 5126,
      "count": 119,
      "max": [
        5
      ],
      "min": [
        0.041669998317956924
      ],
      "type": "SCALAR"
    },
    {
      "bufferView": 6,
      "byteOffset": 10512,
      "componentType": 5126,
      "count": 119,
      "max": [
        0.53936177492141724,
        0,
        0,
        0.89888328313827515
      ],
      "min": [
        0.43830254673957825,
        0,
        0,
        0.84207415580749512
      ],
      "type": "VEC4"
    },
    {
      "bufferView": 5,
      "byteOffset": 3104,
      "componentType": 5126,
      "count": 120,
      "max": [
        5
      ],
      "min": [
        0.041669998317956924
      ],
      "type": "SCALAR"
    },
    {
      "bufferView": 6,
      "byteOffset": 12416,
      "componentType": 5126,
      "count": 120,
      "max": [
        0,
        0.94269508123397827,
        0.4342905580997467,
        0
      ],
      "min": [
        0,
        0.9007728099822998,
        0.33368411660194397,
        0
      ],
      "type": "VEC4"
    },
    {
      "bufferView": 5,
      "byteOffset": 3584,
      "componentType": 5126,
      "count": 120,
      "max": [
        5
      ],
      "min": [
        0.041669998317956924
      ],
      "type": "SCALAR"
    },
    {
      "bufferView": 6,
      "byteOffset": 14336,
      "componentType": 5126,
      "count": 120,
      "max": [
        -0.48555466532707214,
        0,
        -0,
        0.874256432056427
      ],
      "min": [
        -0.60887593030929565,
        0,
        -0,
        0.79326546192169189
      ],
      "type": "VEC4"
    },
    {
      "bufferView": 5,
      "byteOffset": 4064,
      "componentType": 5126,
      "count": 1,
      "max": [
        0.041669998317956924
      ],
      "min": [
        0.041669998317956924
      ],
      "type": "SCALAR"
    },
    {
      "bufferView": 6,
      "byteOffset": 16256,
      "componentType": 5126,
      "count": 1,
      "max": [
        -0.48629799485206604,
        0,
        0,
        0.87379300594329834
      ],
      "min": [
        -0.48629799485206604,
        0,
        0,
        0.87379300594329834
      ],
      "type": "VEC4"
    },
    {
      "bufferView": 5,
      "byteOffset": 4068,
      "componentType": 5126,
      "count": 111,
      "max": [
        5
      ],
      "min": [
        0.041669998317956924
      ],
      "type": "SCALAR"
    },
    {
      "bufferView": 6,
      "byteOffset": 16272,
      "componentType": 5126,
      "count": 111,
      "max": [
        0.029943330213427544,
        0,
        0,
        0.99990314245223999
      ],
      "min": [
        0.015437141992151737,
        0,
        0,
        0.99955159425735474
      ],
      "type": "VEC4"
    },
    {
      "bufferView": 5,
      "byteOffset": 4512,
      "componentType": 5126,
      "count": 112,
      "max": [
        5
      ],
      "min": [
        0.041669998317956924
      ],
      "type": "SCALAR"
    },
    {
      "bufferView": 6,
      "byteOffset": 18048,
      "componentType": 5126,
      "count": 112,
      "max": [
        0.065626233816146851,
        0,
        0,
        0.99902969598770142
      ],
      "min": [
        0.044788755476474762,
        0,
        0,
        0.99784427881240845
      ],
      "type": "VEC4"
    },
    {
      "bufferView": 5,
      "byteOffset": 4960,
      "componentType": 5126,
      "count": 118,
      "max": [
        5
      ],
      "min": [
        0.041669998317956924
      ],
      "type": "SCALAR"
    },
    {
      "bufferView": 6,
      "byteOffset": 19840,
      "componentType": 5126,
      "count": 118,
      "max": [
        0.84270948171615601,
        0,
        0,
        0.57543426752090454
      ],
      "min": [
        0.8178669810295105,
        0,
        0,
        0.53836864233016968
      ],
      "type": "VEC4"
    }
  ],
  "animations": [
    {
      "channels": [
        {
          "sampler": 0,
          "target": {
            "node": 5,
            "path": "rotation"
          }
        },
        {
          "sampler": 1,
          "target": {
            "node": 6,
            "path": "rotation"
          }
        },
        {
          "sampler": 2,
          "target": {
            "node": 7,
            "path": "rotation"
          }
        },
        {
          "sampler": 3,
          "target": {
            "node": 8,
            "path": "rotation"
          }
        },
        {
          "sampler": 4,
          "target": {
            "node": 9,
            "path": "rotation"
          }
        },
        {
          "sampler": 5,
          "target": {
            "node": 10,
            "path": "rotation"
          }
        },
        {
          "sampler": 6,
          "target": {
            "node": 11,
            "path": "rotation"
          }
        },
        {
          "sampler": 7,
          "target": {
            "node": 12,
            "path": "rotation"
          }
        },
        {
          "sampler": 8,
          "target": {
            "node": 13,
            "path": "rotation"
          }
        },
        {
          "sampler": 9,
          "target": {
            "node": 14,
            "path": "rotation"
          }
        },
        {
          "sampler": 10,
          "target": {
            "node": 15,
            "path": "rotation"
          }
        },
        {
          "sampler": 11,
          "target": {
            "node": 16,
            "path": "rotation"
          }
        },
        {
          "sampler": 12,
          "target": {
            "node": 17,
            "path": "rotation"
          }
        }
      ],
      "name": "Action",
      "samplers": [
        {
          "input": 11,
          "interpolation": "LINEAR",
          "output": 12
        },
        {
          "input": 13,
          "interpolation": "LINEAR",
          "output": 14
        },
        {
          "input": 15,
          "interpolation": "LINEAR",
          "output": 16
        },
        {
          "input": 17,
          "interpolation": "LINEAR",
          "output": 18
        },
        {
          "input": 19,
          "interpolation": "LINEAR",
          "output": 20
        },
        {
          "input": 21,
          "interpolation": "LINEAR",
          "output": 22
        },
        {
          "input": 23,
          "interpolation": "LINEAR",
          "output": 24
        },
        {
          "input": 25,
          "interpolation": "LINEAR",
          "output": 26
        },
        {
          "input": 27,
          "interpolation": "LINEAR",
          "output": 28
        },
        {
          "input": 29,
          "interpolation": "LINEAR",
          "output": 30
        },
        {
          "input": 31,
          "interpolation": "LINEAR",
          "output": 32
        },
        {
          "input": 33,
          "interpolation": "LINEAR",
          "output": 34
        },
        {
          "input": 35,
          "interpolation": "LINEAR",
          "output": 36
        }
      ]
    }
  ],
  "asset": {
    "extras": {
      "author": "Dirk.z (https://sketchfab.com/138983)",
      "license": "CC-BY-4.0 (http://creativecommons.org/licenses/by/4.0/)",
      "source": "https://sketchfab.com/models/a3d2b678685248bebee00eb247a3dbfa",
      "title": "Seahorse"
    },
    "generator": "Sketchfab-4.23.2",
    "version": "2.0"
  },
  "bufferViews": [
    {
      "buffer": 0,
      "byteLength": 300344,
      "byteOffset": 0,
      "byteStride": 8,
      "name": "shortBufferViews",
      "target": 34962
    },
    {
      "buffer": 0,
      "byteLength": 176136,
      "byteOffset": 300344,
      "name": "floatBufferViews",
      "target": 34963
    },
    {
      "buffer": 0,
      "byteLength": 901032,
      "byteOffset": 476480,
      "byteStride": 12,
      "name": "floatBufferViews",
      "target": 34962
    },
    {
      "buffer": 0,
      "byteLength": 600688,
      "byteOffset": 1377512,
      "byteStride": 16,
      "name": "floatBufferViews",
      "target": 34962
    },
    {
      "buffer": 0,
      "byteLength": 896,
      "byteOffset": 1978200,
      "byteStride": 64,
      "name": "floatBufferViews"
    },
    {
      "buffer": 0,
      "byteLength": 5432,
      "byteOffset": 1979096,
      "name": "floatBufferViews"
    },
    {
      "buffer": 0,
      "byteLength": 21728,
      "byteOffset": 1984528,
      "byteStride": 16,
      "name": "floatBufferViews"
    }
  ],
  "buffers": [
    {
      "byteLength": 2006256,
      "uri": "scene.bin"
    }
  ],
  "materials": [
    {
      "doubleSided": true,
      "emissiveFactor": [
        0,
        0,
        0
      ],
      "name": "Material",
      "pbrMetallicRoughness": {
        "baseColorFactor": [
          0.80000007149999997,
          0.4110427499,
          0.074288338400000001,
          1
        ],
        "metallicFactor": 0,
        "roughnessFactor": 0.59999999999999998
      }
    },
    {
      "doubleSided": true,
      "emissiveFactor": [
        0,
        0,
        0
      ],
      "name": "Material.001",
      "pbrMetallicRoughness": {
        "baseColorFactor": [
          0.0036420668000000001,
          0.0036420668000000001,
          0.0036420668000000001,
          1
        ],
        "metallicFactor": 0,
        "roughnessFactor": 0.59999999999999998
      }
    }
  ],
  "meshes": [
    {
      "name": "Plane",
      "primitives": [
        {
          "attributes": {
            "JOINTS_0": 7,
            "NORMAL": 1,
            "POSITION": 0,
            "WEIGHTS_0": 8
          },
          "indices": 2,
          "material": 0,
          "mode": 4
        }
      ]
    },
    {
      "name": "Plane",
      "primitives": [
        {
          "attributes": {
            "JOINTS_0": 9,
            "NORMAL": 4,
            "POSITION": 3,
            "WEIGHTS_0": 10
          },
          "indices": 5,
          "material": 1,
          "mode": 4
        }
      ]
    }
  ],
  "nodes": [
    {
      "children": [
        1
      ],
      "name": "RootNode (gltf orientation matrix)",
      "rotation": [
        -0.70710678118654746,
        -0,
        -0,
        0.70710678118654757
      ]
    },
    {
      "children": [
        2
      ],
      "name": "RootNode (model correction matrix)"
    },
    {
      "children": [
        3
      ],
      "name": "Root"
    },
    {
      "children": [
        4,
        19,
        20,
        18
      ],
      "matrix": [
        1,
        0,
        -0,
        0,
        0,
        -0.96528000000000003,
        0.26119999999999999,
        0,
        0,
        -0.26119999999999999,
        -0.96528000000000003,
        0,
        0,
        2.0239600000000002,
        -2.4074900000000001,
        1
      ],
      "name": "Armature"
    },
    {
      "children": [
        5,
        14
      ],
      "name": "Armature_rootJoint"
    },
    {
      "children": [
        6
      ],
      "name": "Bone_Armature",
      "rotation": [
        0.7071068286895752,
        0,
        0,
        0.7071068286895752
      ],
      "scale": [
        1,
        1,
        1
      ],
      "translation": [
        0,
        0,
        0
      ]
    },
    {
      "children": [
        7
      ],
      "name": "Bone.001_Armature",
      "rotation": [
        -0.22533053159713745,
        0,
        0,
        0.97428238391876221
      ],
      "scale": [
        1,
        0.99999743700027466,
        0.99999743700027466
      ],
      "translation": [
        0,
        1,
        0
      ]
    },
    {
      "children": [
        8
      ],
      "name": "Bone.002_Armature",
      "rotation": [
        -0.49957019090652466,
        0,
        0,
        0.86627340316772461
      ],
      "scale": [
        1,
        1.0000014305114746,
        1.0000014305114746
      ],
      "translation": [
        0,
        1.2034800052642822,
        0
      ]
    },
    {
      "children": [
        9
      ],
      "name": "Bone.003_Armature",
      "rotation": [
        -0.42536494135856628,
        0,
        0,
        0.90502190589904785
      ],
      "scale": [
        1,
        1.000001072883606,
        1.000001072883606
      ],
      "translation": [
        0,
        1.0054899454116821,
        0
      ]
    },
    {
      "children": [
        10
      ],
      "name": "Bone.004_Armature",
      "rotation": [
        0,
        0.92177534103393555,
        -0.38772439956665039,
        0
      ],
      "scale": [
        1,
        1.0000005960464478,
        1.0000005960464478
      ],
      "translation": [
        0,
        0.84675002098083496,
        0
      ]
    },
    {
      "children": [
        11
      ],
      "name": "Bone.005_Armature",
      "rotation": [
        0.58912694454193115,
        0,
        0,
        0.80804061889648438
      ],
      "scale": [
        1,
        1.0000033378601074,
        1.0000033378601074
      ],
      "translation": [
        0,
        0.76994001865386963,
        0
      ]
    },
    {
      "children": [
        12
      ],
      "name": "Bone.006_Armature",
      "rotation": [
        0.53936177492141724,
        0,
        0,
        0.84207415580749512
      ],
      "scale": [
        1,
        1.0000052452087402,
        1.0000052452087402
      ],
      "translation": [
        0,
        0.65507000684738159,
        0
      ]
    },
    {
      "children": [
        13
      ],
      "name": "Bone.007_Armature",
      "rotation": [
        0,
        0.90077292919158936,
        0.43429061770439148,
        0
      ],
      "scale": [
        1,
        0.99999451637268066,
        0.99999451637268066
      ],
      "translation": [
        0,
        0.5461999773979187,
        0
      ]
    },
    {
      "name": "Bone.008_Armature",
      "rotation": [
        -0.60887593030929565,
        0,
        0,
        0.79326546192169189
      ],
      "scale": [
        1,
        0.99999946355819702,
        0.99999946355819702
      ],
      "translation": [
        0,
        0.40505999326705933,
        0
      ]
    },
    {
      "children": [
        15
      ],
      "name": "Bone.009_Armature",
      "rotation": [
        -0.48629805445671082,
        0,
        0,
        0.87379312515258789
      ],
      "scale": [
        1,
        1.0000028610229492,
        1.0000028610229492
      ],
      "translation": [
        0,
        0,
        0
      ]
    },
    {
      "children": [
        16
      ],
      "name": "Bone.010_Armature",
      "rotation": [
        0.029943330213427544,
        0,
        0,
        0.99955159425735474
      ],
      "scale": [
        1,
        1.0000032186508179,
        1.0000032186508179
      ],
      "translation": [
        0,
        2.1442000865936279,
        0
      ]
    },
    {
      "children": [
        17
      ],
      "name": "Bone.011_Armature",
      "rotation": [
        0.065626233816146851,
        0,
        0,
        0.99784427881240845
      ],
      "scale": [
        1,
        1.0000036954879761,
        1.0000036954879761
      ],
      "translation": [
        0,
        1.8301999568939209,
        0
      ]
    },
    {
      "name": "Bone.012_Armature",
      "rotation": [
        0.84270948171615601,
        0,
        0,
        0.53836864233016968
      ],
      "scale": [
        1,
        1.0000036954879761,
        1.0000036954879761
      ],
      "translation": [
        0,
        2.7126600742340088,
        0
      ]
    },
    {
      "matrix": [
        0,
        -0.26119999999999999,
        0.96528000000000003,
        0,
        0,
        -0.96528000000000003,
        -0.26119999999999999,
        0,
        1,
        0,
        -0,
        0,
        -0,
        2.5825300000000002,
        -1.7952500000000002,
        1
      ],
      "name": "Plane"
    },
    {
      "mesh": 0,
      "name": "Plane_0",
      "skin": 0
    },
    {
      "mesh": 1,
      "name": "Plane_1",
      "skin": 0
    }
  ],
  "scene": 0,
  "scenes": [
    {
      "name": "OSG_Scene",
      "nodes": [
        0
      ]
    }
  ],
  "skins": [
    {
      "inverseBindMatrices": 6,
      "joints": [
        4,
        5,
        6,
        7,
        8,
        9,
        10,
        11,
        12,
        13,
        14,
        15,
        16,
        17
      ],
      "skeleton": 4
    }
  ]
}

